<svg id="arrow-left" width="17" height="17" viewBox="0 0 17 17" fill="none" xmlns="http://www.w3.org/2000/svg">
<path d="M9.05097 15.3207L7.91961 16.4992L0.455948 8.72461L0.226284 8.48537L9.43165e-06 8.24967L0.226284 8.01397L0.452558 7.77827L7.9196 9.18622e-05L9.05098 1.1786L4.50862 5.91022C3.95627 6.48559 3.33826 6.98822 2.66843 7.40686C2.57905 7.46273 2.62791 7.60608 2.7311 7.59072L3.89807 7.41706C4.1275 7.38292 4.35897 7.36579 4.59072 7.3658L16.7021 7.36609V9.13386L4.59061 9.13356C4.35893 9.13356 4.12754 9.11643 3.89819 9.0823L2.7311 8.90862C2.62791 8.89327 2.57905 9.03662 2.66843 9.09248C3.33826 9.51112 3.95627 10.0138 4.50862 10.5891L9.05097 15.3207Z" fill="currentColor"/>
</svg>
