<svg id="arrow-right" width="17" height="17" viewBox="0 0 17 17" fill="none" xmlns="http://www.w3.org/2000/svg">
<path d="M7.6511 15.3207L8.78247 16.4992L16.2461 8.72461L16.4758 8.48537L16.7021 8.24967L16.4758 8.01397L16.2495 7.77827L8.78247 9.18622e-05L7.6511 1.1786L12.1935 5.91022C12.7458 6.48559 13.3638 6.98822 14.0336 7.40686C14.123 7.46273 14.0742 7.60608 13.971 7.59072L12.804 7.41706C12.5746 7.38292 12.3431 7.36579 12.1114 7.3658L-6.40158e-06 7.36609V9.13386L12.1115 9.13356C12.3431 9.13356 12.5745 9.11643 12.8039 9.0823L13.971 8.90862C14.0742 8.89327 14.123 9.03662 14.0336 9.09248C13.3638 9.51112 12.7458 10.0138 12.1935 10.5891L7.6511 15.3207Z" fill="currentColor"/>
</svg>
