<svg id="beenhere" width="10" height="14" viewBox="0 0 10 14" fill="none" xmlns="http://www.w3.org/2000/svg">
<path d="M5 13.125L0.5 9.75C0.34375 9.63542 0.221354 9.48958 0.132812 9.3125C0.0442708 9.13542 0 8.94792 0 8.75V1.25C0 0.90625 0.122396 0.611979 0.367188 0.367188C0.611979 0.122396 0.90625 0 1.25 0H8.75C9.09375 0 9.38802 0.122396 9.63281 0.367188C9.8776 0.611979 10 0.90625 10 1.25V8.75C10 8.94792 9.95573 9.13542 9.86719 9.3125C9.77865 9.48958 9.65625 9.63542 9.5 9.75L5 13.125ZM4.34375 8.125L7.875 4.59375L7 3.6875L4.34375 6.34375L3.03125 5.03125L2.125 5.90625L4.34375 8.125Z" fill="#999999"/>
</svg>
