<svg id="bonus" width="15" height="15" viewBox="0 0 15 15" fill="none" xmlns="http://www.w3.org/2000/svg">
<path fill-rule="evenodd" clip-rule="evenodd" d="M5.43707 0.859832C5.32404 0.961283 5.2057 1.05667 5.08256 1.14559C4.86914 1.28883 4.62922 1.38766 4.37712 1.43779C4.26755 1.45928 4.15296 1.46859 3.9245 1.48649C3.35084 1.53233 3.06365 1.55525 2.82444 1.63975C2.55086 1.73619 2.30237 1.89272 2.09725 2.09784C1.89213 2.30296 1.73559 2.55145 1.63916 2.82504C1.55465 3.06424 1.53173 3.35143 1.4859 3.92509C1.47767 4.07672 1.46142 4.22781 1.4372 4.37772C1.38707 4.62981 1.28823 4.86974 1.145 5.08316C1.08269 5.17626 1.00821 5.26364 0.859239 5.43767C0.486108 5.87597 0.299185 6.09512 0.189609 6.3243C-0.063203 6.85428 -0.063203 7.47019 0.189609 8.00017C0.299185 8.22935 0.486108 8.4485 0.859239 8.8868C1.00821 9.06083 1.08269 9.14821 1.145 9.24131C1.28823 9.45473 1.38707 9.69465 1.4372 9.94675C1.45868 10.0563 1.46799 10.1709 1.4859 10.3994C1.53173 10.973 1.55465 11.2602 1.63916 11.4994C1.73559 11.773 1.89213 12.0215 2.09725 12.2266C2.30237 12.4317 2.55086 12.5883 2.82444 12.6847C3.06365 12.7692 3.35084 12.7921 3.9245 12.838C4.15296 12.8559 4.26755 12.8652 4.37712 12.8867C4.62922 12.9368 4.86914 13.0364 5.08256 13.1789C5.17567 13.2412 5.26304 13.3157 5.43707 13.4646C5.87538 13.8378 6.09453 14.0247 6.32371 14.1343C6.85368 14.3871 7.4696 14.3871 7.99957 14.1343C8.22875 14.0247 8.4479 13.8378 8.88621 13.4646C9.06024 13.3157 9.14761 13.2412 9.24072 13.1789C9.45414 13.0356 9.69406 12.9368 9.94616 12.8867C10.0557 12.8652 10.1703 12.8559 10.3988 12.838C10.9724 12.7921 11.2596 12.7692 11.4988 12.6847C11.7724 12.5883 12.0209 12.4317 12.226 12.2266C12.4312 12.0215 12.5877 11.773 12.6841 11.4994C12.7686 11.2602 12.7915 10.973 12.8374 10.3994C12.8553 10.1709 12.8646 10.0563 12.8861 9.94675C12.9362 9.69465 13.0358 9.45473 13.1783 9.24131C13.2406 9.14821 13.3151 9.06083 13.464 8.8868C13.8372 8.4485 14.0241 8.22935 14.1337 8.00017C14.3865 7.47019 14.3865 6.85428 14.1337 6.3243C14.0241 6.09512 13.8372 5.87597 13.464 5.43767C13.3626 5.32463 13.2672 5.2063 13.1783 5.08316C13.035 4.86977 12.9356 4.62995 12.8861 4.37772C12.8619 4.22781 12.8456 4.07672 12.8374 3.92509C12.7915 3.35143 12.7686 3.06424 12.6841 2.82504C12.5877 2.55145 12.4312 2.30296 12.226 2.09784C12.0209 1.89272 11.7724 1.73619 11.4988 1.63975C11.2596 1.55525 10.9724 1.53233 10.3988 1.48649C10.2472 1.47827 10.0961 1.46201 9.94616 1.43779C9.69392 1.38825 9.4541 1.28891 9.24072 1.14559C9.11758 1.05667 8.99924 0.961283 8.88621 0.859832C8.4479 0.486701 8.22875 0.299778 7.99957 0.190202C7.73798 0.0649933 7.45165 0 7.16164 0C6.87163 0 6.5853 0.0649933 6.32371 0.190202C6.09453 0.299778 5.87538 0.486701 5.43707 0.859832ZM9.90533 4.41926C10.0144 4.52855 10.0757 4.67665 10.0757 4.83106C10.0757 4.98547 10.0144 5.13357 9.90533 5.24287L5.24227 9.90664C5.18914 9.9648 5.12478 10.0116 5.05306 10.0442C4.98135 10.0768 4.90378 10.0945 4.82503 10.0962C4.74628 10.098 4.66799 10.0838 4.59488 10.0545C4.52177 10.0252 4.45536 9.98134 4.39966 9.92564C4.34397 9.86994 4.30013 9.80353 4.27081 9.73043C4.24149 9.65732 4.22729 9.57903 4.22906 9.50028C4.23084 9.42153 4.24856 9.34396 4.28114 9.27224C4.31373 9.20053 4.36051 9.13617 4.41866 9.08303L9.08101 4.41997C9.1903 4.3109 9.3384 4.24964 9.49281 4.24964C9.64722 4.24964 9.79532 4.3109 9.90462 4.41997M9.88098 9.10595C9.88098 9.31204 9.79912 9.50969 9.65339 9.65541C9.50766 9.80114 9.31001 9.88301 9.10393 9.88301C8.89784 9.88301 8.70019 9.80114 8.55446 9.65541C8.40874 9.50969 8.32687 9.31204 8.32687 9.10595C8.32687 8.89986 8.40874 8.70222 8.55446 8.55649C8.70019 8.41076 8.89784 8.32889 9.10393 8.32889C9.31001 8.32889 9.50766 8.41076 9.65339 8.55649C9.79912 8.70222 9.88098 8.89986 9.88098 9.10595ZM5.21864 5.99772C5.42473 5.99772 5.62237 5.91585 5.7681 5.77013C5.91383 5.6244 5.9957 5.42675 5.9957 5.22066C5.9957 5.01458 5.91383 4.81693 5.7681 4.6712C5.62237 4.52548 5.42473 4.44361 5.21864 4.44361C5.01255 4.44361 4.8149 4.52548 4.66918 4.6712C4.52345 4.81693 4.44158 5.01458 4.44158 5.22066C4.44158 5.42675 4.52345 5.6244 4.66918 5.77013C4.8149 5.91585 5.01255 5.99772 5.21864 5.99772Z" fill="#999999"/>
</svg>
