<svg id="close-modal" width="13" height="13" viewBox="0 0 13 13" fill="none" xmlns="http://www.w3.org/2000/svg">
<path fill-rule="evenodd" clip-rule="evenodd" d="M11.8994 0.234382C12.2118 0.546801 12.2118 1.05333 11.8994 1.36575L7.19827 6.06691L11.8994 10.7681C12.2118 11.0805 12.2118 11.587 11.8994 11.8994C11.587 12.2119 11.0805 12.2119 10.768 11.8994L6.06689 7.19828L1.36574 11.8994C1.05332 12.2119 0.546788 12.2119 0.234368 11.8994C-0.0780515 11.587 -0.0780505 11.0805 0.234368 10.7681L4.93552 6.06691L0.234368 1.36575C-0.0780513 1.05333 -0.0780511 0.546801 0.234368 0.234382C0.546788 -0.078038 1.05332 -0.0780378 1.36574 0.234382L6.06689 4.93554L10.768 0.234382C11.0805 -0.0780378 11.587 -0.078038 11.8994 0.234382Z" fill="black"/>
</svg>
