<svg id="download" width="20" height="19" viewBox="0 0 20 19" fill="none" xmlns="http://www.w3.org/2000/svg">
<path fill-rule="evenodd" clip-rule="evenodd" d="M4.49301 8.93822L9.22424 13.6695C9.51457 13.9598 9.98529 13.9598 10.2756 13.6695L15.0069 8.93822C15.2972 8.64789 15.2972 8.17716 15.0069 7.88683C14.7165 7.5965 14.2458 7.5965 13.9555 7.88683L12.2244 9.61788L11.3589 10.4834C11.0714 10.7709 10.8195 11.0918 10.6085 11.4393L10.4617 11.681C10.4387 11.7189 10.3802 11.7008 10.3828 11.6564L10.4934 9.71468V8.08043V4.81193V0.74344C10.4934 0.332849 10.1605 0 9.74993 0C9.33934 0 9.00649 0.33285 9.00649 0.743441L9.00649 4.81193V8.08043V9.71468L9.11314 11.7195C9.11462 11.7473 9.07784 11.7585 9.06353 11.7346L8.88801 11.4413C8.67928 11.0926 8.42838 10.7708 8.14097 10.4834L7.27544 9.61788L5.54439 7.88683C5.25406 7.5965 4.78334 7.5965 4.49301 7.88683C4.20267 8.17716 4.20267 8.64788 4.49301 8.93822ZM1.5 11.7373C1.5 11.3231 1.16421 10.9873 0.75 10.9873C0.335786 10.9873 0 11.3231 0 11.7373V15.7373C0 16.4667 0.289731 17.1661 0.805456 17.6818C1.32118 18.1976 2.02065 18.4873 2.75 18.4873H16.75C17.4793 18.4873 18.1788 18.1976 18.6945 17.6818C19.2103 17.1661 19.5 16.4667 19.5 15.7373V11.7373C19.5 11.3231 19.1642 10.9873 18.75 10.9873C18.3358 10.9873 18 11.3231 18 11.7373V15.7373C18 16.0688 17.8683 16.3868 17.6339 16.6212C17.3995 16.8556 17.0815 16.9873 16.75 16.9873H2.75C2.41848 16.9873 2.10054 16.8556 1.86612 16.6212C1.6317 16.3868 1.5 16.0688 1.5 15.7373V11.7373Z" fill="#1F1F1F"/>
</svg>
