<svg id="fire" width="12" height="14" viewBox="0 0 12 14" fill="none" xmlns="http://www.w3.org/2000/svg">
<path d="M6.71356 13.1427C8.84808 12.7153 11.6081 11.1796 11.6081 7.20893C11.6081 3.59609 8.96348 1.1898 7.06181 0.0843047C6.63914 -0.161513 6.14545 0.161464 6.14545 0.649686V1.8979C6.14545 2.88253 5.73166 4.67974 4.58178 5.42743C3.99454 5.80913 3.35951 5.23761 3.2885 4.54112L3.22978 3.96891C3.16149 3.30384 2.48413 2.90029 1.95289 3.30589C0.997612 4.0331 0 5.30999 0 7.20825C0 12.0638 3.61148 13.2786 5.41687 13.2786C5.52248 13.2786 5.63265 13.2752 5.74736 13.2683C4.85559 13.1926 3.41414 12.6395 3.41414 10.8505C3.41414 9.45066 4.43497 8.50494 5.21066 8.04403C5.4196 7.92112 5.66337 8.08159 5.66337 8.32399V8.72686C5.66337 9.03413 5.78287 9.51552 6.06624 9.84465C6.38717 10.2175 6.85764 9.82689 6.8952 9.33662C6.90749 9.1823 7.06317 9.08398 7.19701 9.16182C7.6347 9.41788 8.19393 9.96414 8.19393 10.8505C8.19393 12.2489 7.42302 12.8921 6.71356 13.1427Z" fill="#999999"/>
</svg>
