<svg id="lte" width="13" height="11" viewBox="0 0 13 11" fill="none" xmlns="http://www.w3.org/2000/svg">
<path fill-rule="evenodd" clip-rule="evenodd" d="M11.025 0C10.0907 0 9.33335 0.757387 9.33335 1.69167V9.15824C9.33335 10.0925 10.0907 10.8499 11.025 10.8499C11.9593 10.8499 12.7167 10.0925 12.7167 9.15824V1.69167C12.7167 0.757386 11.9593 0 11.025 0ZM6.35834 2.39486C5.42406 2.39486 4.66668 3.15225 4.66668 4.08653V9.15824C4.66668 10.0925 5.42406 10.8499 6.35834 10.8499C7.29263 10.8499 8.05001 10.0925 8.05001 9.15824V4.08653C8.05001 3.15225 7.29263 2.39486 6.35834 2.39486ZM1.69167 4.31434C0.757386 4.31434 0 5.07173 0 6.00601V9.15824C0 10.0925 0.757386 10.8499 1.69167 10.8499C2.62595 10.8499 3.38334 10.0925 3.38334 9.15824V6.00601C3.38334 5.07173 2.62595 4.31434 1.69167 4.31434Z" fill="#999999"/>
</svg>
