<svg id="plus" width="13" height="13" viewBox="0 0 13 13" fill="none" xmlns="http://www.w3.org/2000/svg">
<path fill-rule="evenodd" clip-rule="evenodd" d="M6.25122 0C6.80351 0 7.25122 0.447715 7.25122 1V5.25122H11.5024C12.0547 5.25122 12.5024 5.69894 12.5024 6.25122C12.5024 6.80351 12.0547 7.25122 11.5024 7.25122H7.25122V11.5024C7.25122 12.0547 6.80351 12.5024 6.25122 12.5024C5.69894 12.5024 5.25122 12.0547 5.25122 11.5024V7.25122H1C0.447715 7.25122 0 6.80351 0 6.25122C0 5.69894 0.447715 5.25122 1 5.25122H5.25122V1C5.25122 0.447715 5.69894 0 6.25122 0Z" fill="#1F1F1F"/>
</svg>
