<svg id="vector"  width="17" height="18" viewBox="0 0 17 18" fill="none" xmlns="http://www.w3.org/2000/svg">
<path fill-rule="evenodd" clip-rule="evenodd" d="M1.36076 4.51437L14.0205 0.118844C14.4774 -0.039479 15.3327 -0.147758 16.0206 0.530305C16.7119 1.21181 16.6514 2.11162 16.5177 2.59892L12.9014 15.7814C12.9012 15.7822 12.9009 15.783 12.9007 15.7838C12.8434 15.9938 12.7386 16.2838 12.5325 16.5592C12.3222 16.8402 11.9026 17.2296 11.2575 17.2726C10.6166 17.3154 10.1559 16.9889 9.91605 16.7463C9.67787 16.5053 9.5358 16.2359 9.45059 16.037L9.44959 16.0346L7.82878 12.2351C7.46964 11.3933 7.34711 10.482 7.45057 9.59898C6.67736 9.73994 5.87153 9.6834 5.10498 9.4172L1.3541 8.11466C1.35409 8.11465 1.35412 8.11466 1.3541 8.11466C1.16794 8.05001 0.902207 7.93523 0.651434 7.72138C0.407793 7.51361 -0.00383803 7.04348 2.70243e-05 6.3067C0.00387682 5.57284 0.417515 5.10862 0.659061 4.90461C0.909128 4.69341 1.17389 4.57925 1.36076 4.51437ZM8.09991 7.631C8.25371 7.54764 8.40198 7.45072 8.54304 7.34051L11.1634 5.29333C11.3855 5.11987 11.666 5.41205 11.4994 5.64333L9.65521 8.20477C9.57103 8.32168 9.495 8.44322 9.42721 8.56852C9.38241 8.6513 9.34122 8.73572 9.30365 8.82153C8.92796 9.67953 8.91456 10.6761 9.29092 11.5584L10.9117 15.3578C11.0603 15.7046 11.2626 15.6922 11.3621 15.3267L14.9793 2.14105C15.0774 1.78318 14.8765 1.57869 14.5256 1.70028L2.01694 6.04335L1.8667 6.09551C1.51055 6.21918 1.51387 6.41331 1.86007 6.53352L2.0252 6.59086L5.611 7.83609C6.43993 8.12394 7.33778 8.04405 8.09991 7.631Z" fill="#1F1F1F"/>
</svg>
